<?xml version="1.0" encoding="UTF-8" standalone="no"?>
<!DOCTYPE svg PUBLIC "-//W3C//DTD SVG 1.1//EN"
 "http://www.w3.org/Graphics/SVG/1.1/DTD/svg11.dtd">
<!-- Generated by graphviz version 2.40.1 (20161225.0304)
 -->
<!-- Title: GoERD Pages: 1 -->
<svg width="327pt" height="1005pt"
 viewBox="0.00 0.00 327.26 1004.60" xmlns="http://www.w3.org/2000/svg" xmlns:xlink="http://www.w3.org/1999/xlink">
<g id="graph0" class="graph" transform="scale(1 1) rotate(0) translate(4 1000.5974)">
<title>GoERD</title>
<polygon fill="#ffffff" stroke="transparent" points="-4,4 -4,-1000.5974 323.2627,-1000.5974 323.2627,4 -4,4"/>
<!-- node&#45;User -->
<g id="node1" class="node">
<title>node&#45;User</title>
<polygon fill="none" stroke="#000000" points="0,-307.8992 0,-743.8979 225.8701,-743.8979 225.8701,-307.8992 0,-307.8992"/>
<text text-anchor="middle" x="112.9351" y="-728.6979" font-family="Times,serif" font-size="14.00" fill="#000000">User</text>
<polyline fill="none" stroke="#000000" points="0,-721.8979 225.8701,-721.8979 "/>
<text text-anchor="middle" x="112.9351" y="-706.6979" font-family="Times,serif" font-size="14.00" fill="#000000">ID int 主键ID</text>
<polyline fill="none" stroke="#000000" points="0,-694.298 225.8701,-694.298 "/>
<text text-anchor="middle" x="112.9351" y="-679.098" font-family="Times,serif" font-size="14.00" fill="#000000">CreatedAt time.Time 记录创建时间</text>
<polyline fill="none" stroke="#000000" points="0,-666.6981 225.8701,-666.6981 "/>
<text text-anchor="middle" x="112.9351" y="-651.4981" font-family="Times,serif" font-size="14.00" fill="#000000">UpdatedAt time.Time 记录更新时间</text>
<polyline fill="none" stroke="#000000" points="0,-639.0982 225.8701,-639.0982 "/>
<text text-anchor="middle" x="112.9351" y="-623.8982" font-family="Times,serif" font-size="14.00" fill="#000000">Username string 用户名</text>
<polyline fill="none" stroke="#000000" points="0,-611.4983 225.8701,-611.4983 "/>
<text text-anchor="middle" x="112.9351" y="-596.2983" font-family="Times,serif" font-size="14.00" fill="#000000">Alias string 昵称</text>
<polyline fill="none" stroke="#000000" points="0,-583.8984 225.8701,-583.8984 "/>
<text text-anchor="middle" x="112.9351" y="-568.6984" font-family="Times,serif" font-size="14.00" fill="#000000">Avatar string 头像</text>
<polyline fill="none" stroke="#000000" points="0,-556.2985 225.8701,-556.2985 "/>
<text text-anchor="middle" x="112.9351" y="-541.0985" font-family="Times,serif" font-size="14.00" fill="#000000">Email string 邮箱</text>
<polyline fill="none" stroke="#000000" points="0,-528.6985 225.8701,-528.6985 "/>
<text text-anchor="middle" x="112.9351" y="-513.4985" font-family="Times,serif" font-size="14.00" fill="#000000">Mobile string 手机号码</text>
<polyline fill="none" stroke="#000000" points="0,-501.0986 225.8701,-501.0986 "/>
<text text-anchor="middle" x="112.9351" y="-485.8986" font-family="Times,serif" font-size="14.00" fill="#000000">Password string 密码</text>
<polyline fill="none" stroke="#000000" points="0,-473.4987 225.8701,-473.4987 "/>
<text text-anchor="middle" x="112.9351" y="-458.2987" font-family="Times,serif" font-size="14.00" fill="#000000">ConfirmPassword string 确认密码</text>
<polyline fill="none" stroke="#000000" points="0,-445.8988 225.8701,-445.8988 "/>
<text text-anchor="middle" x="112.9351" y="-430.6988" font-family="Times,serif" font-size="14.00" fill="#000000">Pwd string 数据库存储加密密码</text>
<polyline fill="none" stroke="#000000" points="0,-418.2989 225.8701,-418.2989 "/>
<text text-anchor="middle" x="112.9351" y="-403.0989" font-family="Times,serif" font-size="14.00" fill="#000000">IsAdmin bool 超级用户</text>
<polyline fill="none" stroke="#000000" points="0,-390.699 225.8701,-390.699 "/>
<text text-anchor="middle" x="112.9351" y="-375.499" font-family="Times,serif" font-size="14.00" fill="#000000">IsActive bool 用户有效</text>
<polyline fill="none" stroke="#000000" points="0,-363.0991 225.8701,-363.0991 "/>
<text text-anchor="middle" x="112.9351" y="-347.8991" font-family="Times,serif" font-size="14.00" fill="#000000">RoleID int 用户角色ID</text>
<polyline fill="none" stroke="#000000" points="0,-335.4991 225.8701,-335.4991 "/>
<text text-anchor="middle" x="112.9351" y="-320.2991" font-family="Times,serif" font-size="14.00" fill="#000000">Role *Role 用户角色</text>
</g>
<!-- node&#45;Role -->
<g id="node2" class="node">
<title>node&#45;Role</title>
<polygon fill="none" stroke="#000000" points="46.6074,-.5 46.6074,-270.8992 319.2627,-270.8992 319.2627,-.5 46.6074,-.5"/>
<text text-anchor="middle" x="182.9351" y="-255.6992" font-family="Times,serif" font-size="14.00" fill="#000000">Role</text>
<polyline fill="none" stroke="#000000" points="46.6074,-248.8992 319.2627,-248.8992 "/>
<text text-anchor="middle" x="182.9351" y="-233.6992" font-family="Times,serif" font-size="14.00" fill="#000000">ID int 主键ID</text>
<polyline fill="none" stroke="#000000" points="46.6074,-221.2993 319.2627,-221.2993 "/>
<text text-anchor="middle" x="182.9351" y="-206.0993" font-family="Times,serif" font-size="14.00" fill="#000000">CreatedAt time.Time 记录创建时间</text>
<polyline fill="none" stroke="#000000" points="46.6074,-193.6994 319.2627,-193.6994 "/>
<text text-anchor="middle" x="182.9351" y="-178.4994" font-family="Times,serif" font-size="14.00" fill="#000000">UpdatedAt time.Time 记录更新时间</text>
<polyline fill="none" stroke="#000000" points="46.6074,-166.0995 319.2627,-166.0995 "/>
<text text-anchor="middle" x="182.9351" y="-150.8995" font-family="Times,serif" font-size="14.00" fill="#000000">Name string 角色名称</text>
<polyline fill="none" stroke="#000000" points="46.6074,-138.4996 319.2627,-138.4996 "/>
<text text-anchor="middle" x="182.9351" y="-123.2996" font-family="Times,serif" font-size="14.00" fill="#000000">Code string 角色编码</text>
<polyline fill="none" stroke="#000000" points="46.6074,-110.8997 319.2627,-110.8997 "/>
<text text-anchor="middle" x="182.9351" y="-95.6997" font-family="Times,serif" font-size="14.00" fill="#000000">InheritIds []int 所继承的角色ID</text>
<polyline fill="none" stroke="#000000" points="46.6074,-83.2997 319.2627,-83.2997 "/>
<text text-anchor="middle" x="182.9351" y="-68.0997" font-family="Times,serif" font-size="14.00" fill="#000000">InheritStrings string 所继承角色ID逗号分隔</text>
<polyline fill="none" stroke="#000000" points="46.6074,-55.6998 319.2627,-55.6998 "/>
<text text-anchor="middle" x="182.9351" y="-40.4998" font-family="Times,serif" font-size="14.00" fill="#000000">Inherits []*Role 继承的角色</text>
<polyline fill="none" stroke="#000000" points="46.6074,-28.0999 319.2627,-28.0999 "/>
<text text-anchor="middle" x="182.9351" y="-12.8999" font-family="Times,serif" font-size="14.00" fill="#000000">IsActive bool 有效</text>
</g>
<!-- node&#45;User&#45;&gt;node&#45;Role -->
<g id="edge1" class="edge">
<title>node&#45;User:f14&#45;&gt;node&#45;Role</title>
<path fill="none" stroke="#000000" d="M112.9351,-307.8986C112.9351,-298.9887 113.7493,-289.9977 115.202,-281.0468"/>
<polygon fill="#000000" stroke="#000000" points="118.6895,-281.4399 117.1042,-270.9643 111.8109,-280.1421 118.6895,-281.4399"/>
</g>
<!-- node&#45;Role&#45;&gt;node&#45;Role -->
<g id="edge2" class="edge">
<title>node&#45;Role:f7&#45;&gt;node&#45;Role</title>
<path fill="none" stroke="#000000" d="M183.9728,-55.8895C191.9206,-176.6106 191.5747,-466.3992 182.9351,-466.3992 177.1543,-466.3992 175.0865,-375.4436 176.7319,-281.1647"/>
<polygon fill="#000000" stroke="#000000" points="180.2315,-281.2109 176.9205,-271.1468 173.2327,-281.0791 180.2315,-281.2109"/>
</g>
<!-- node&#45;UserRole -->
<g id="node3" class="node">
<title>node&#45;UserRole</title>
<polygon fill="none" stroke="#000000" points="70,-780.8979 70,-996.0974 295.8701,-996.0974 295.8701,-780.8979 70,-780.8979"/>
<text text-anchor="middle" x="182.9351" y="-980.8974" font-family="Times,serif" font-size="14.00" fill="#000000">UserRole</text>
<polyline fill="none" stroke="#000000" points="70,-974.0974 295.8701,-974.0974 "/>
<text text-anchor="middle" x="182.9351" y="-958.8974" font-family="Times,serif" font-size="14.00" fill="#000000">ID int 主键ID</text>
<polyline fill="none" stroke="#000000" points="70,-946.4974 295.8701,-946.4974 "/>
<text text-anchor="middle" x="182.9351" y="-931.2974" font-family="Times,serif" font-size="14.00" fill="#000000">CreatedAt time.Time 记录创建时间</text>
<polyline fill="none" stroke="#000000" points="70,-918.8975 295.8701,-918.8975 "/>
<text text-anchor="middle" x="182.9351" y="-903.6975" font-family="Times,serif" font-size="14.00" fill="#000000">UpdatedAt time.Time 记录更新时间</text>
<polyline fill="none" stroke="#000000" points="70,-891.2976 295.8701,-891.2976 "/>
<text text-anchor="middle" x="182.9351" y="-876.0976" font-family="Times,serif" font-size="14.00" fill="#000000">Role *Role 角色</text>
<polyline fill="none" stroke="#000000" points="70,-863.6977 295.8701,-863.6977 "/>
<text text-anchor="middle" x="182.9351" y="-848.4977" font-family="Times,serif" font-size="14.00" fill="#000000">RoleID int 角色ID</text>
<polyline fill="none" stroke="#000000" points="70,-836.0978 295.8701,-836.0978 "/>
<text text-anchor="middle" x="182.9351" y="-820.8978" font-family="Times,serif" font-size="14.00" fill="#000000">User *User 用户</text>
<polyline fill="none" stroke="#000000" points="70,-808.4979 295.8701,-808.4979 "/>
<text text-anchor="middle" x="182.9351" y="-793.2979" font-family="Times,serif" font-size="14.00" fill="#000000">UserID int 用户ID</text>
</g>
<!-- node&#45;UserRole&#45;&gt;node&#45;User -->
<g id="edge4" class="edge">
<title>node&#45;UserRole:f5&#45;&gt;node&#45;User</title>
<path fill="none" stroke="#000000" d="M69.9351,-822.4977C28.4765,-822.4977 16.9916,-793.764 20.8382,-754.1835"/>
<polygon fill="#000000" stroke="#000000" points="24.3209,-754.54 22.0942,-744.1818 17.3754,-753.6677 24.3209,-754.54"/>
</g>
<!-- node&#45;UserRole&#45;&gt;node&#45;Role -->
<g id="edge3" class="edge">
<title>node&#45;UserRole:f3&#45;&gt;node&#45;Role</title>
<path fill="none" stroke="#000000" d="M295.9351,-877.4977C326.6749,-877.4977 342.4905,-809.1491 234.9351,-307.3992 233.0653,-298.677 230.9631,-289.7573 228.7038,-280.7935"/>
<polygon fill="#000000" stroke="#000000" points="232.0794,-279.8666 226.1942,-271.0567 225.301,-281.6138 232.0794,-279.8666"/>
</g>
</g>
</svg>
